####
#
# OBJ File Generated by Meshlab
#
####
# Object ¿é1.obj
#
# Vertices: 16
# Faces: 28
#
####
vn -1.570798 -1.570796 -1.570796
v 421.000000 380.000000 0.000000
vn -1.570796 1.570796 -1.570796
v 421.000000 464.000000 0.000000
vn 1.404963 2.273278 -2.034444
v 477.000000 464.000000 0.000000
vn 1.404963 -0.868315 -1.107149
v 519.000000 380.000000 0.000000
vn 1.404963 -0.868315 1.107149
v 519.000000 380.000000 5.000000
vn -1.570796 -1.570797 1.570796
v 421.000000 380.000000 5.000000
vn -1.570798 1.570796 1.570796
v 421.000000 464.000000 5.000000
vn 1.404963 2.273278 2.034444
v 477.000000 464.000000 5.000000
vn 0.385751 -2.187696 4.712385
v 455.582306 435.204224 5.000000
vn -2.187690 -0.385751 4.712391
v 462.135529 430.615631 5.000000
vn 2.187692 0.385747 4.712390
v 446.978668 422.916992 5.000000
vn -0.385748 2.187692 4.712389
v 453.531891 418.328369 5.000000
vn 0.385751 -2.187696 1.570800
v 455.582306 435.204224 3.500000
vn 2.187692 0.385747 1.570796
v 446.978668 422.916992 3.500000
vn -0.385748 2.187692 1.570796
v 453.531891 418.328369 3.500000
vn -2.187689 -0.385751 1.570794
v 462.135529 430.615631 3.500000
# 16 vertices, 0 vertices normals

f 1//1 2//2 3//3
f 3//3 4//4 1//1
f 4//4 5//5 6//6
f 6//6 1//1 4//4
f 7//7 2//2 1//1
f 1//1 6//6 7//7
f 7//7 8//8 3//3
f 3//3 2//2 7//7
f 4//4 3//3 8//8
f 8//8 5//5 4//4
f 8//8 7//7 9//9
f 9//9 10//10 8//8
f 10//10 5//5 8//8
f 7//7 6//6 11//11
f 11//11 9//9 7//7
f 6//6 5//5 12//12
f 12//12 11//11 6//6
f 10//10 12//12 5//5
f 13//13 9//9 11//11
f 11//11 14//14 13//13
f 13//13 14//14 15//15
f 15//15 16//16 13//13
f 16//16 15//15 12//12
f 12//12 10//10 16//16
f 16//16 10//10 9//9
f 9//9 13//13 16//16
f 12//12 15//15 14//14
f 14//14 11//11 12//12
# 28 faces, 0 coords texture

# End of File
