####
#
# OBJ File Generated by Meshlab
#
####
# Object ¿é3.obj
#
# Vertices: 16
# Faces: 28
#
####
vn 1.570796 1.570796 -1.570796
v 575.000000 464.000000 0.000000
vn 1.570798 -1.570797 -1.570796
v 575.000000 380.000000 0.000000
vn -1.404963 -2.273278 -2.034444
v 533.000000 380.000000 0.000000
vn -1.404963 0.868316 -1.107149
v 491.000000 464.000000 0.000000
vn 1.570798 1.570798 1.570796
v 575.000000 464.000000 5.000000
vn 1.570796 -1.570796 1.570796
v 575.000000 380.000000 5.000000
vn -1.404963 0.868315 1.107148
v 491.000000 464.000000 5.000000
vn -1.404963 -2.273278 2.034444
v 533.000000 380.000000 5.000000
vn 0.000000 -2.221441 4.712389
v 530.146301 432.216888 5.000000
vn -2.221442 0.000000 4.712389
v 540.752930 421.610260 5.000000
vn 2.221442 -0.000000 4.712389
v 524.489441 426.560028 5.000000
vn -0.000000 2.221441 4.712389
v 535.096069 415.953400 5.000000
vn 2.221441 -0.000000 1.570796
v 524.489441 426.560028 3.500000
vn -0.000000 2.221442 1.570796
v 535.096069 415.953400 3.500000
vn 0.000000 -2.221442 1.570796
v 530.146301 432.216888 3.500000
vn -2.221441 0.000000 1.570796
v 540.752930 421.610260 3.500000
# 16 vertices, 0 vertices normals

f 1//1 2//2 3//3
f 3//3 4//4 1//1
f 5//5 6//6 2//2
f 2//2 1//1 5//5
f 7//7 4//4 3//3
f 3//3 8//8 7//7
f 8//8 3//3 2//2
f 2//2 6//6 8//8
f 5//5 1//1 4//4
f 4//4 7//7 5//5
f 5//5 9//9 10//10
f 5//5 7//7 9//9
f 7//7 11//11 9//9
f 8//8 12//12 11//11
f 6//6 10//10 12//12
f 11//11 7//7 8//8
f 10//10 6//6 5//5
f 12//12 8//8 6//6
f 13//13 11//11 12//12
f 12//12 14//14 13//13
f 9//9 15//15 16//16
f 16//16 10//10 9//9
f 15//15 13//13 14//14
f 14//14 16//16 15//15
f 13//13 15//15 9//9
f 9//9 11//11 13//13
f 16//16 14//14 12//12
f 12//12 10//10 16//16
# 28 faces, 0 coords texture

# End of File
