####
#
# OBJ File Generated by Meshlab
#
####
# Object ¿é4.obj
#
# Vertices: 16
# Faces: 28
#
####
vn -1.404963 2.273278 -2.034444
v 519.000000 534.000000 0.000000
vn -1.404963 2.273278 2.034444
v 519.000000 534.000000 5.000000
vn 1.570796 1.570796 1.570797
v 575.000000 534.000000 5.000000
vn 1.570796 1.570796 -1.570796
v 575.000000 534.000000 0.000000
vn 1.570796 -1.570796 1.570796
v 575.000000 478.000000 5.000000
vn 1.570796 -1.570798 -1.570796
v 575.000000 478.000000 0.000000
vn -1.404963 -0.868316 1.107149
v 491.000000 478.000000 5.000000
vn -1.404963 -0.868315 -1.107149
v 491.000000 478.000000 0.000000
vn -0.385748 -2.187693 4.712389
v 530.061035 507.578064 5.000000
vn -2.187690 0.385749 4.712390
v 534.649658 501.024841 5.000000
vn 0.385748 2.187697 4.712385
v 522.362366 492.421204 5.000000
vn 2.187691 -0.385745 4.712391
v 517.773743 498.974396 5.000000
vn 2.187691 -0.385745 1.570794
v 517.773743 498.974396 3.500000
vn -0.385747 -2.187693 1.570796
v 530.061035 507.578064 3.500000
vn 0.385748 2.187697 1.570800
v 522.362366 492.421204 3.500000
vn -2.187691 0.385749 1.570795
v 534.649658 501.024841 3.500000
# 16 vertices, 0 vertices normals

f 1//1 2//2 3//3
f 3//3 4//4 1//1
f 3//3 5//5 6//6
f 6//6 4//4 3//3
f 6//6 5//5 7//7
f 7//7 8//8 6//6
f 2//2 1//1 8//8
f 8//8 7//7 2//2
f 6//6 8//8 1//1
f 1//1 4//4 6//6
f 3//3 9//9 10//10
f 5//5 10//10 11//11
f 3//3 2//2 9//9
f 2//2 7//7 12//12
f 10//10 5//5 3//3
f 7//7 11//11 12//12
f 12//12 9//9 2//2
f 11//11 7//7 5//5
f 12//12 13//13 14//14
f 14//14 9//9 12//12
f 15//15 16//16 14//14
f 14//14 13//13 15//15
f 15//15 11//11 10//10
f 10//10 16//16 15//15
f 11//11 15//15 13//13
f 13//13 12//12 11//11
f 10//10 9//9 14//14
f 14//14 16//16 10//10
# 28 faces, 0 coords texture

# End of File
